<?xml version="1.0" encoding="UTF-8" standalone="no"?>
<!DOCTYPE svg PUBLIC "-//W3C//DTD SVG 1.1//EN"
 "http://www.w3.org/Graphics/SVG/1.1/DTD/svg11.dtd">
<!-- Generated by graphviz version 15.1.0 (0)
 -->
<!-- Pages: 1 -->
<svg width="242pt" height="67pt"
 viewBox="0.00 0.00 242.00 67.00" xmlns="http://www.w3.org/2000/svg" xmlns:xlink="http://www.w3.org/1999/xlink">
<g id="graph0" class="graph" transform="scale(1 1) rotate(0) translate(4 63)">
<polygon fill="white" stroke="none" points="-4,4 -4,-63 238,-63 238,4 -4,4"/>
<!-- a -->
<g id="node1" class="node">
<title>a</title>
<ellipse fill="none" stroke="black" cx="27" cy="-18" rx="27" ry="18"/>
<text xml:space="preserve" text-anchor="middle" x="27" y="-13.8" font-family="Times,serif" font-size="14.00">a</text>
</g>
<!-- b -->
<g id="node2" class="node">
<title>b</title>
<ellipse fill="none" stroke="black" cx="117" cy="-41" rx="27" ry="18"/>
<text xml:space="preserve" text-anchor="middle" x="117" y="-36.8" font-family="Times,serif" font-size="14.00">b</text>
</g>
<!-- a&#45;&gt;b -->
<g id="edge1" class="edge">
<title>a&#45;&gt;b</title>
<path fill="none" stroke="black" d="M52.51,-24.41C61.12,-26.66 70.97,-29.23 80.3,-31.67"/>
<polygon fill="black" stroke="black" points="79.29,-35.02 89.85,-34.17 81.06,-28.25 79.29,-35.02"/>
</g>
<!-- c -->
<g id="node3" class="node">
<title>c</title>
<ellipse fill="none" stroke="black" cx="207" cy="-18" rx="27" ry="18"/>
<text xml:space="preserve" text-anchor="middle" x="207" y="-13.8" font-family="Times,serif" font-size="14.00">c</text>
</g>
<!-- a&#45;&gt;c -->
<g id="edge3" class="edge">
<title>a&#45;&gt;c</title>
<path fill="none" stroke="black" d="M54.23,-15.93C65.26,-15.16 78.25,-14.38 90,-14 113.99,-13.23 120.01,-13.23 144,-14 151.9,-14.25 160.35,-14.69 168.39,-15.18"/>
<polygon fill="black" stroke="black" points="168.05,-18.67 178.26,-15.83 168.51,-11.68 168.05,-18.67"/>
</g>
<!-- b&#45;&gt;c -->
<g id="edge2" class="edge">
<title>b&#45;&gt;c</title>
<path fill="none" stroke="black" d="M142.51,-34.59C151.12,-32.34 160.97,-29.77 170.3,-27.33"/>
<polygon fill="black" stroke="black" points="171.06,-30.75 179.85,-24.83 169.29,-23.98 171.06,-30.75"/>
</g>
</g>
</svg>
